<?xml version="1.0" standalone="no"?>
<!DOCTYPE svg PUBLIC "-//W3C//DTD SVG 20010904//EN"
 "http://www.w3.org/TR/2001/REC-SVG-20010904/DTD/svg10.dtd">
<svg version="1.0" xmlns="http://www.w3.org/2000/svg"
 width="160" height="65" viewBox="0 0 564.000000 425.000000"
 preserveAspectRatio="xMidYMid meet">

<g transform="translate(0.000000,425.000000) scale(0.100000,-0.100000)"
fill="#000000" stroke="none">
<path d="M66 4174 c-3 -9 -6 -200 -6 -426 0 -323 3 -409 12 -406 10 4 14 96
18 399 4 217 9 400 14 407 5 9 100 12 400 12 338 0 395 2 406 15 11 13 -36 15
-413 15 -378 0 -426 -2 -431 -16z"/>
<path d="M4760 4175 c11 -13 67 -15 395 -15 211 0 390 -3 399 -6 14 -5 16 -35
17 -223 2 -362 12 -584 27 -589 17 -5 18 818 0 836 -9 9 -118 12 -431 12 -372
0 -418 -2 -407 -15z"/>
<path d="M2964 3906 c-84 -37 -168 -152 -279 -381 -40 -82 -94 -211 -120 -285
-58 -166 -69 -188 -144 -286 -93 -122 -181 -183 -264 -184 -102 0 -144 80
-113 214 43 183 213 368 301 328 18 -9 25 -19 25 -40 0 -36 -34 -82 -61 -82
-24 0 -26 -41 -3 -64 19 -19 74 -21 96 -3 54 44 66 134 23 185 -13 16 -38 35
-55 42 -46 19 -166 9 -222 -18 -85 -42 -198 -177 -228 -273 -7 -24 -22 -52
-33 -61 -23 -21 -85 -24 -111 -5 -16 12 -16 16 -1 72 52 200 -34 331 -204 311
-154 -18 -296 -162 -346 -352 -50 -192 19 -314 177 -314 117 0 223 67 298 189
25 40 36 50 49 44 9 -4 44 -8 77 -8 l62 0 5 -46 c8 -69 30 -113 73 -145 36
-28 42 -29 143 -29 99 0 110 2 160 30 29 16 83 61 118 100 72 77 73 71 17 -52
l-33 -73 53 0 c77 0 96 19 177 184 106 212 204 334 280 350 55 11 89 -26 70
-75 -18 -49 -79 -83 -169 -95 -42 -5 -52 -11 -61 -33 -28 -74 -19 -206 20
-283 45 -89 159 -76 274 33 73 69 185 238 192 290 3 21 3 39 0 39 -3 0 -24
-31 -46 -69 -86 -146 -169 -225 -232 -219 -30 3 -35 8 -52 52 -9 27 -20 74
-24 106 l-6 57 71 22 c115 37 182 110 182 198 0 56 -26 77 -94 77 -77 0 -145
-38 -259 -144 -86 -82 -95 -88 -85 -58 6 18 47 71 92 118 108 112 162 177 230
278 159 235 179 373 54 372 -24 -1 -57 -7 -74 -14z m93 -72 c-6 -54 -56 -160
-125 -262 -57 -86 -194 -261 -204 -262 -23 -1 200 471 252 533 21 25 40 37 57
37 24 0 25 -2 20 -46z m-1389 -535 c20 -7 34 -21 41 -41 14 -40 14 -38 -10
-38 -32 0 -79 -53 -79 -90 0 -37 21 -90 43 -109 16 -12 14 -18 -15 -73 -59
-112 -133 -178 -198 -178 -44 0 -66 14 -79 51 -15 43 -14 74 4 144 36 137 131
286 206 323 51 26 47 25 87 11z"/>
<path d="M4335 3855 c-147 -33 -256 -94 -344 -191 -97 -106 -121 -187 -121
-411 l0 -133 -90 0 -90 0 0 -239 c0 -131 5 -262 10 -292 35 -183 214 -376 427
-457 139 -53 214 -65 396 -59 168 4 223 14 339 61 139 57 284 175 351 287 71
120 78 160 75 444 l-3 250 -87 3 -86 3 -4 177 c-4 173 -4 178 -35 242 -69 147
-186 242 -368 300 -89 28 -280 36 -370 15z m259 -200 c109 -23 188 -79 220
-157 12 -29 16 -76 16 -208 l0 -170 -325 0 -325 0 0 175 c0 200 5 220 68 277
53 48 91 67 166 83 80 17 98 17 180 0z m3 -831 c70 -52 79 -127 23 -183 l-29
-29 -3 -153 -3 -154 -102 -3 -103 -3 0 162 c0 157 -1 162 -25 191 -18 21 -25
41 -25 72 0 50 19 79 68 106 50 27 159 24 199 -6z"/>
<path d="M433 3839 c-94 -18 -159 -73 -202 -169 -26 -57 -16 -71 19 -28 55 67
216 131 363 145 l69 6 -30 -49 c-45 -73 -185 -343 -246 -474 -97 -206 -160
-424 -143 -492 16 -61 9 -60 366 -56 308 3 329 5 373 25 64 29 138 134 138
196 0 16 -8 11 -42 -25 -77 -81 -195 -122 -403 -139 -97 -8 -141 -8 -173 0
-102 28 -95 139 27 424 101 236 267 535 337 610 l35 37 -223 -1 c-123 -1 -242
-5 -265 -10z"/>
<path d="M2785 2354 c-79 -29 -143 -115 -130 -175 4 -16 20 -43 37 -59 l30
-30 -29 0 c-44 0 -124 -43 -165 -88 -41 -46 -63 -109 -54 -158 8 -41 63 -90
113 -101 181 -38 383 61 383 188 0 40 -14 56 -57 68 -25 7 -19 10 47 25 160
36 163 38 175 88 l7 27 -39 -18 c-21 -11 -85 -33 -142 -51 -114 -35 -151 -61
-151 -107 l1 -28 20 28 c16 21 26 26 43 21 27 -9 36 -22 36 -57 0 -86 -97
-157 -216 -157 -167 0 -162 217 7 290 35 15 62 20 84 16 22 -4 36 -2 44 7 9
12 4 15 -31 20 -132 18 -84 196 59 223 43 8 91 -4 103 -26 11 -21 -3 -69 -23
-82 -8 -5 -3 -8 11 -8 33 0 62 34 62 74 0 26 -7 41 -31 60 -26 22 -40 26 -92
25 -34 0 -80 -7 -102 -15z"/>
<path d="M1459 1549 l-376 -209 -59 27 c-53 25 -70 28 -169 28 -123 0 -164
-13 -255 -80 -163 -120 -210 -388 -103 -581 38 -69 108 -135 178 -170 55 -27
69 -29 171 -29 108 0 112 1 189 39 139 69 221 176 249 323 l12 68 74 42 75 42
24 73 c13 40 25 74 26 76 1 1 35 -5 75 -13 84 -18 83 -19 101 63 7 29 15 55
19 57 4 2 35 -4 70 -15 35 -11 66 -17 70 -15 4 2 12 29 20 59 19 81 18 80 93
60 42 -12 70 -15 76 -9 10 11 71 232 71 256 0 37 -35 60 -135 89 -55 16 -104
29 -110 29 -5 0 -179 -95 -386 -210z m-673 -613 c26 -26 34 -42 34 -70 0 -51
-23 -90 -64 -110 -42 -20 -59 -20 -100 -1 -59 28 -81 96 -51 155 21 42 53 60
103 60 37 0 50 -6 78 -34z"/>
<path d="M4138 1686 c-194 -69 -535 -347 -741 -606 l-28 -35 21 55 c69 180
240 491 314 568 l31 34 -250 -4 c-284 -4 -308 -10 -377 -86 -56 -62 -97 -152
-70 -152 5 0 15 11 22 25 17 33 91 79 166 106 66 23 191 49 235 49 l29 0 -34
-52 c-91 -143 -214 -431 -325 -762 -37 -111 -71 -213 -75 -229 l-6 -27 100 0
100 0 0 39 c0 53 26 161 57 241 27 68 70 132 146 215 40 45 46 48 52 30 70
-217 218 -471 298 -508 25 -12 62 -17 134 -17 l100 0 -87 88 c-125 126 -264
343 -325 505 -17 46 -17 48 1 68 33 37 315 244 419 307 128 78 243 132 295
139 81 11 35 33 -70 33 -43 0 -88 -9 -132 -24z"/>
<path d="M4345 1193 c-169 -69 -294 -262 -283 -442 7 -129 81 -193 220 -192
119 1 219 58 304 174 l43 58 -6 -63 c-10 -112 37 -177 118 -164 77 12 127 47
217 150 23 27 42 44 42 39 0 -16 -97 -268 -124 -321 -58 -114 -167 -173 -234
-126 -25 17 -30 70 -11 106 23 43 -50 73 -94 38 -55 -43 -44 -131 22 -172 31
-20 50 -23 136 -23 93 0 104 2 161 32 77 40 153 122 194 210 17 37 58 143 90
237 100 294 140 388 188 439 l26 27 -55 0 c-76 0 -124 -16 -144 -47 -10 -14
-37 -70 -60 -124 -92 -213 -267 -411 -317 -361 -17 17 -10 112 13 187 26 87
96 223 150 294 l41 54 -61 -6 c-112 -12 -148 -45 -224 -207 -27 -58 -69 -133
-93 -166 -170 -240 -406 -276 -403 -62 0 29 6 71 12 93 l12 39 90 -2 c135 -4
223 29 274 104 49 71 31 158 -40 196 -43 23 -148 23 -204 1z m180 -39 c29 -29
0 -111 -56 -158 -87 -73 -199 -91 -199 -31 0 28 76 133 116 160 64 44 114 54
139 29z"/>
<path d="M60 522 c0 -226 3 -417 6 -426 5 -14 53 -16 431 -16 377 0 424 2 413
15 -11 13 -68 15 -399 15 -225 0 -392 4 -401 10 -13 8 -16 68 -20 406 -4 305
-8 398 -17 402 -10 3 -13 -83 -13 -406z"/>
<path d="M5596 921 c-3 -4 -6 -182 -6 -394 -1 -330 -4 -389 -16 -402 -13 -13
-71 -15 -403 -15 -333 0 -390 -2 -401 -15 -11 -13 36 -15 413 -15 378 0 426 2
431 16 3 9 6 200 6 425 0 374 -4 434 -24 400z"/>
</g>
</svg>
